<?xml version="1.0" encoding="UTF-8"?>
<svg xmlns="http://www.w3.org/2000/svg" viewBox="0 0 586.11 586.11" width="586" height="586">
<g fill="#0A0A0A"><path d="M375 549Q375 596 338.5 615.0Q302 634 241 632V656Q292 654 341.5 652.0Q391 650 442 650Q481 650 519.5 652.0Q558 654 597 656V632Q549 630 529.0 615.0Q509 600 509 559V158Q509 131 494.5 101.5Q480 72 448.5 48.0Q417 24 368.0 8.0Q319 -8 250 -8Q216 -8 176.5 0.0Q137 8 103.0 26.0Q69 44 46.5 72.5Q24 101 24 142Q24 156 28.5 170.0Q33 184 42.0 195.0Q51 206 64.5 213.0Q78 220 95 220Q129 220 150.5 201.0Q172 182 172 147Q172 121 157 103Q172 68 200.0 46.0Q228 24 267 24Q297 24 318.0 39.0Q339 54 351.5 76.5Q364 99 369.5 126.5Q375 154 375 179Z" transform="translate(62.976,398.016) scale(0.32000,-0.32000)"/><path d="M606 447Q595 503 576.5 535.5Q558 568 531.0 585.0Q504 602 469.0 607.0Q434 612 389 612V134Q389 100 392.0 78.5Q395 57 406.0 44.0Q417 31 439.0 25.0Q461 19 499 16V-4Q457 -2 414.5 -1.0Q372 0 329 0Q283 0 238.0 -1.0Q193 -2 145 -4V16Q183 19 205.0 25.0Q227 31 238.0 44.0Q249 57 252.0 78.5Q255 100 255 134V612Q210 612 175.0 607.0Q140 602 113.0 585.0Q86 568 67.5 535.5Q49 503 38 447H12Q14 466 15.5 485.5Q17 505 18.5 529.0Q20 553 21.0 584.0Q22 615 22 656Q97 654 170.0 652.0Q243 650 317 650Q392 650 467.0 652.0Q542 654 618 656Q618 615 619.0 584.0Q620 553 621.5 529.0Q623 505 624.5 485.5Q626 466 628 447Z" transform="translate(315.776,398.016) scale(0.32000,-0.32000)"/></g><circle cx="290.18" cy="303.55" r="5.76" fill="#0A0A0A"/>
</svg>
